<svg width="102" height="463" viewBox="0 0 102 463" fill="none" xmlns="http://www.w3.org/2000/svg">
<path d="M0 2.00001C0 0.89544 0.895431 0 2 0H10C11.1046 0 12 0.895431 12 2V460C12 461.105 11.1046 462 10 462H2C0.895431 462 0 461.105 0 460V2.00001Z" fill="#FF0000" fill-opacity="0.65"/>
<path d="M21 4.99999C21 2.23856 23.2386 0 26 0H40C42.7614 0 45 2.23858 45 5V458C45 460.761 42.7614 463 40 463H26C23.2386 463 21 460.761 21 458V4.99999Z" fill="#FF0000" fill-opacity="0.65"/>
<path d="M54 5.00001C54 2.23859 56.2386 0 59 0H97C99.7614 0 102 2.23858 102 5V457C102 459.761 99.7614 462 97 462H59C56.2386 462 54 459.761 54 457V5.00001Z" fill="#FF0000" fill-opacity="0.65"/>
</svg>
